<svg width="190" height="60" viewBox="0 0 190 60" fill="none" xmlns="http://www.w3.org/2000/svg">
<path d="M17.16 0C20.4453 0.0586659 23.32 0.821332 25.784 2.288C28.248 3.75467 30.1253 5.72 31.416 8.184C32.7653 10.648 33.44 13.4347 33.44 16.544C33.44 18.832 33 21.0027 32.12 23.056C31.2987 25.0507 30.1547 26.84 28.688 28.424C30.8 30.008 32.4427 31.9733 33.616 34.32C34.848 36.6667 35.464 39.248 35.464 42.064C35.464 45.056 34.7307 47.8133 33.264 50.336C31.7973 52.8587 29.832 54.8827 27.368 56.408C24.904 57.8747 22.176 58.608 19.184 58.608H0V0H17.16ZM7.744 7.92V25.344H17.16C19.5653 25.344 21.5893 24.4933 23.232 22.792C24.8747 21.0907 25.696 19.008 25.696 16.544C25.696 14.08 24.8747 12.0267 23.232 10.384C21.648 8.74133 19.624 7.92 17.16 7.92H7.744ZM7.744 33.264V50.688H19.184C21.5893 50.688 23.6133 49.8667 25.256 48.224C26.8987 46.5227 27.72 44.4693 27.72 42.064C27.72 39.6 26.8987 37.5173 25.256 35.816C23.6133 34.1147 21.5893 33.264 19.184 33.264H7.744Z" fill="#0065FC"/>
<path d="M64.7824 59.048C61.7904 59.048 58.9451 58.4613 56.2464 57.288C53.5478 56.1147 51.1718 54.5013 49.1184 52.448C47.0651 50.3947 45.4518 48.0187 44.2784 45.32C43.1051 42.6213 42.5184 39.776 42.5184 36.784C42.5184 33.7333 43.1051 30.8293 44.2784 28.072C45.4518 25.3147 47.0651 22.9093 49.1184 20.856C51.1718 18.8027 53.5478 17.2187 56.2464 16.104C58.9451 14.9307 61.7904 14.344 64.7824 14.344C67.8331 14.344 70.7371 14.9307 73.4944 16.104C76.2518 17.2187 78.6571 18.8027 80.7104 20.856C82.7638 22.9093 84.3478 25.3147 85.4624 28.072C86.6358 30.8293 87.2224 33.7333 87.2224 36.784C87.2224 39.776 86.6358 42.6213 85.4624 45.32C84.3478 48.0187 82.7638 50.3947 80.7104 52.448C78.6571 54.5013 76.2518 56.1147 73.4944 57.288C70.7371 58.4613 67.8331 59.048 64.7824 59.048ZM64.7824 22.176C60.8518 22.176 57.4784 23.584 54.6624 26.4C53.3131 27.7493 52.2571 29.3333 51.4944 31.152C50.7318 32.9707 50.3504 34.848 50.3504 36.784C50.3504 38.72 50.7318 40.568 51.4944 42.328C52.2571 44.088 53.3131 45.6427 54.6624 46.992C56.0118 48.3413 57.5371 49.3973 59.2384 50.16C60.9984 50.9227 62.8464 51.304 64.7824 51.304C66.7184 51.304 68.5958 50.9227 70.4144 50.16C72.2331 49.3973 73.7878 48.3413 75.0784 46.992C76.3691 45.6427 77.3958 44.088 78.1584 42.328C78.9211 40.568 79.3024 38.72 79.3024 36.784C79.3024 34.848 78.9211 32.9707 78.1584 31.152C77.3958 29.3333 76.3691 27.7493 75.0784 26.4C73.7878 25.0507 72.2331 24.024 70.4144 23.32C68.6544 22.5573 66.7771 22.176 64.7824 22.176Z" fill="#0065FC"/>
<path d="M114.798 59.048C111.806 59.048 108.961 58.4613 106.262 57.288C103.563 56.1147 101.187 54.5013 99.1341 52.448C97.0807 50.3947 95.4674 48.0187 94.2941 45.32C93.1207 42.6213 92.5341 39.776 92.5341 36.784C92.5341 33.7333 93.1207 30.8293 94.2941 28.072C95.4674 25.3147 97.0807 22.9093 99.1341 20.856C101.187 18.8027 103.563 17.2187 106.262 16.104C108.961 14.9307 111.806 14.344 114.798 14.344C117.849 14.344 120.753 14.9307 123.51 16.104C126.267 17.2187 128.673 18.8027 130.726 20.856C132.779 22.9093 134.363 25.3147 135.478 28.072C136.651 30.8293 137.238 33.7333 137.238 36.784C137.238 39.776 136.651 42.6213 135.478 45.32C134.363 48.0187 132.779 50.3947 130.726 52.448C128.673 54.5013 126.267 56.1147 123.51 57.288C120.753 58.4613 117.849 59.048 114.798 59.048ZM114.798 22.176C110.867 22.176 107.494 23.584 104.678 26.4C103.329 27.7493 102.273 29.3333 101.51 31.152C100.747 32.9707 100.366 34.848 100.366 36.784C100.366 38.72 100.747 40.568 101.51 42.328C102.273 44.088 103.329 45.6427 104.678 46.992C106.027 48.3413 107.553 49.3973 109.254 50.16C111.014 50.9227 112.862 51.304 114.798 51.304C116.734 51.304 118.611 50.9227 120.43 50.16C122.249 49.3973 123.803 48.3413 125.094 46.992C126.385 45.6427 127.411 44.088 128.174 42.328C128.937 40.568 129.318 38.72 129.318 36.784C129.318 34.848 128.937 32.9707 128.174 31.152C127.411 29.3333 126.385 27.7493 125.094 26.4C123.803 25.0507 122.249 24.024 120.43 23.32C118.67 22.5573 116.793 22.176 114.798 22.176Z" fill="#0065FC"/>
<path d="M166.268 58.608L152.892 42.328V58.608H145.148V0.0879984H152.892V25.344L164.86 14.08H176.388L155.532 33.44L176.476 58.608H166.268Z" fill="#0065FC"/>
<path d="M185.806 8.272C184.691 8.272 183.723 7.89066 182.902 7.128C182.139 6.30666 181.758 5.33866 181.758 4.224C181.758 3.10933 182.139 2.17067 182.902 1.408C183.723 0.586665 184.691 0.175998 185.806 0.175998C186.92 0.175998 187.859 0.586665 188.622 1.408C189.443 2.17067 189.854 3.10933 189.854 4.224C189.854 5.33866 189.443 6.30666 188.622 7.128C187.859 7.89066 186.92 8.272 185.806 8.272ZM182.198 58.608V14.608H189.59V58.608H182.198Z" fill="#0065FC"/>
<path d="M119.444 31.108C119.444 33.5933 117.429 35.608 114.944 35.608C112.459 35.608 110.444 33.5933 110.444 31.108C110.444 28.6228 112.459 26.608 114.944 26.608C117.429 26.608 119.444 28.6228 119.444 31.108Z" fill="#0065FC"/>
<path d="M110.444 45.608L112.616 29.608H117.582L119.444 45.608H110.444Z" fill="#0065FC"/>
</svg>
